<svg xmlns="http://www.w3.org/2000/svg" xmlns:xlink="http://www.w3.org/1999/xlink" id="bb76200d-cd07-483e-a421-0f3a49134860" width="740.856" height="391.51" data-name="Layer 1" viewBox="0 0 740.856 391.51"><defs><linearGradient id="fd7346e0-ec75-4521-bfef-a70f45a1cb66" x1="558.452" x2="558.452" y1="638.71" y2="572.731" gradientUnits="userSpaceOnUse"><stop offset="0" stop-color="gray" stop-opacity=".25"/><stop offset=".535" stop-color="gray" stop-opacity=".12"/><stop offset="1" stop-color="gray" stop-opacity=".1"/></linearGradient></defs><title>Ordinary day</title><g opacity=".2"><path fill="#428de8" d="M573.09826,468.33119c0-18.53279-5.7122-35.37279-15.02337-47.90291a44.94628,44.94628,0,1,0-80.997,0c-9.31117,12.53012-15.02337,29.37012-15.02337,47.90291s5.7122,35.37271,15.02337,47.9029a44.94628,44.94628,0,1,0,80.997,0C567.38606,503.7039,573.09826,486.864,573.09826,468.33119Z" transform="translate(-229.57176 -254.24502)"/><path fill="#428de8" d="M573.09826,468.33119c0-18.53279-5.7122-35.37279-15.02337-47.90291a44.94628,44.94628,0,1,0-80.997,0c-9.31117,12.53012-15.02337,29.37012-15.02337,47.90291s5.7122,35.37271,15.02337,47.9029a44.94628,44.94628,0,1,0,80.997,0C567.38606,503.7039,573.09826,486.864,573.09826,468.33119Z" opacity=".1" transform="translate(-229.57176 -254.24502)"/><path fill="#428de8" d="M575.74216,468.33119c0-18.53279-5.7122-35.37279-15.02338-47.90291a44.94627,44.94627,0,1,0-80.997,0c-9.31117,12.53012-15.02338,29.37012-15.02338,47.90291s5.71221,35.37271,15.02338,47.9029a44.94627,44.94627,0,1,0,80.997,0C570.03,503.7039,575.74216,486.864,575.74216,468.33119Z" transform="translate(-229.57176 -254.24502)"/><polygon fill="#428de8" points="295.936 384.618 285.361 384.618 290.649 210.12 295.936 384.618"/><polygon fill="#428de8" points="291.97 253.731 326.341 239.203 291.97 257.71 291.97 253.731"/><polygon fill="#428de8" points="288.846 269.608 278.751 257.71 288.646 276.218 288.846 269.608"/></g><g opacity=".2"><path fill="#428de8" d="M653.73942,528.21576c0-11.9783-3.692-22.86251-9.71007-30.9611a29.05014,29.05014,0,1,0-52.35081,0c-6.01809,8.09859-9.71006,18.9828-9.71006,30.9611s3.692,22.86246,9.71006,30.9611a29.05015,29.05015,0,1,0,52.35081,0C650.04745,551.07822,653.73942,540.19406,653.73942,528.21576Z" transform="translate(-229.57176 -254.24502)"/><path fill="#428de8" d="M653.73942,528.21576c0-11.9783-3.692-22.86251-9.71007-30.9611a29.05014,29.05014,0,1,0-52.35081,0c-6.01809,8.09859-9.71006,18.9828-9.71006,30.9611s3.692,22.86246,9.71006,30.9611a29.05015,29.05015,0,1,0,52.35081,0C650.04745,551.07822,653.73942,540.19406,653.73942,528.21576Z" opacity=".1" transform="translate(-229.57176 -254.24502)"/><path fill="#428de8" d="M655.44825,528.21576c0-11.9783-3.692-22.86251-9.71007-30.9611a29.05014,29.05014,0,1,0-52.35081,0c-6.01809,8.09859-9.71006,18.9828-9.71006,30.9611s3.692,22.86246,9.71006,30.9611a29.05015,29.05015,0,1,0,52.35081,0C651.75628,551.07822,655.44825,540.19406,655.44825,528.21576Z" transform="translate(-229.57176 -254.24502)"/><polygon fill="#428de8" points="393.409 384.19 386.573 384.19 389.991 271.407 393.409 384.19"/><polygon fill="#428de8" points="390.845 299.595 413.06 290.205 390.845 302.166 390.845 299.595"/><polygon fill="#428de8" points="388.826 309.856 382.301 302.166 388.696 314.128 388.826 309.856"/></g><rect width="1.225" height="18.37" x="314.432" y="341.754" fill="#535461"/><rect width="3.062" height="21.432" x="313.208" y="362.574" fill="#535461"/><rect width="3.062" height="21.432" x="378.115" y="362.574" fill="#535461"/><rect width="3.062" height="21.432" x="313.208" y="362.574" opacity=".1"/><rect width="3.062" height="21.432" x="378.115" y="362.574" opacity=".1"/><rect width="1.225" height="18.37" x="608.911" y="595.999" fill="#535461" transform="translate(989.47498 956.12373) rotate(-180)"/><rect width="1.225" height="18.37" x="314.432" y="341.754" opacity=".1"/><rect width="1.225" height="18.37" x="608.911" y="595.999" opacity=".1" transform="translate(989.47498 956.12373) rotate(-180)"/><rect width="77.154" height="3.674" x="308.921" y="340.53" fill="#535461"/><rect width="77.154" height="3.674" x="308.921" y="346.653" fill="#535461"/><rect width="77.154" height="3.674" x="308.921" y="352.776" fill="#535461"/><rect width="77.154" height="6.736" x="308.921" y="359.512" fill="#535461"/><rect width="27.555" height="53.273" x="214.928" y="119.784" fill="#e0e0e0"/><polygon fill="#eee" points="270.957 201.531 270.957 383.393 23.575 383.393 23.575 201.531 44.394 188.733 63.989 176.682 147.572 125.295 270.957 201.531"/><polygon points="239.728 383.393 239.728 192.119 236.054 194.378 236.054 383.393 239.728 383.393" opacity=".1"/><rect width="55.11" height="84.502" x="119.711" y="298.585" fill="#428de8"/><circle cx="166.554" cy="340.836" r="2.449" fill="#535461"/><rect width="27.555" height="3.062" x="214.928" y="120.397" opacity=".1"/><rect width="36.74" height="6.123" x="210.03" y="116.723" fill="#e0e0e0"/><rect width="247.382" height="4.899" x="23.575" y="244.394" opacity=".1"/><rect width="247.382" height="4.899" x="23.575" y="243.781" fill="#fff"/><rect width="6.736" height="56.334" x="232.992" y="116.723" opacity=".1"/><rect width="1.837" height="56.334" x="228.093" y="117.029" opacity=".1"/><polygon points="264.833 194.183 264.833 383.393 245.239 383.393 245.239 188.733 264.833 194.183" opacity=".1"/><polygon points="58.478 176.682 58.478 383.393 38.883 383.393 38.883 188.733 58.478 176.682" opacity=".1"/><polygon points="33.372 383.393 33.372 192.119 29.698 194.378 29.698 383.393 33.372 383.393" opacity=".1"/><polygon points="147.572 105.088 0 212.246 9.797 228.167 147.572 134.48 285.346 228.167 295.144 212.246 147.572 105.088" opacity=".1"/><polygon fill="#428de8" points="147.572 103.864 0 211.022 9.797 226.942 147.572 133.256 285.346 226.942 295.144 211.022 147.572 103.864"/><rect width="51.436" height="51.436" x="44.088" y="277.766" fill="#428de8" opacity=".7"/><rect width="55.11" height="6.123" x="41.945" y="327.671" opacity=".1"/><rect width="55.11" height="6.123" x="41.945" y="326.446" fill="#535461"/><polygon fill="#fff" points="65.593 278.072 44.394 307.323 44.394 292.419 56.31 278.072 65.593 278.072" opacity=".15"/><polygon fill="#fff" points="83.804 278.072 44.394 319.478 44.394 312.173 73.804 278.072 83.804 278.072" opacity=".15"/><line x1="44.088" x2="95.524" y1="303.484" y2="303.484" fill="none" stroke="#535461" stroke-miterlimit="10" stroke-width="2"/><line x1="44.394" x2="95.83" y1="278.072" y2="278.072" fill="none" stroke="#535461" stroke-miterlimit="10" stroke-width="2"/><line x1="95.218" x2="95.218" y1="278.072" y2="329.508" fill="none" stroke="#535461" stroke-miterlimit="10" stroke-width="2"/><line x1="44.394" x2="44.394" y1="277.46" y2="328.895" fill="none" stroke="#535461" stroke-miterlimit="10" stroke-width="2"/><rect width="51.436" height="51.436" x="428.579" y="532.011" fill="#428de8" opacity=".7" transform="translate(679.02301 861.2124) rotate(-180)"/><rect width="55.11" height="6.123" x="427.049" y="581.916" opacity=".1" transform="translate(679.63534 915.7099) rotate(-180)"/><rect width="55.11" height="6.123" x="427.049" y="580.691" fill="#535461" transform="translate(679.63534 913.26057) rotate(-180)"/><polygon fill="#fff" points="228.938 278.072 250.137 307.323 250.137 292.419 238.221 278.072 228.938 278.072" opacity=".15"/><polygon fill="#fff" points="210.728 278.072 250.137 319.478 250.137 312.173 220.727 278.072 210.728 278.072" opacity=".15"/><line x1="250.444" x2="199.008" y1="303.484" y2="303.484" fill="none" stroke="#535461" stroke-miterlimit="10" stroke-width="2"/><line x1="250.137" x2="198.702" y1="278.072" y2="278.072" fill="none" stroke="#535461" stroke-miterlimit="10" stroke-width="2"/><line x1="199.314" x2="199.314" y1="278.072" y2="329.508" fill="none" stroke="#535461" stroke-miterlimit="10" stroke-width="2"/><line x1="250.137" x2="250.137" y1="277.46" y2="328.895" fill="none" stroke="#535461" stroke-miterlimit="10" stroke-width="2"/><rect width="51.436" height="51.436" x="350.813" y="427.302" fill="#428de8" opacity=".7" transform="translate(523.49083 651.79507) rotate(-180)"/><rect width="55.11" height="6.123" x="349.283" y="477.207" opacity=".1" transform="translate(524.10316 706.29256) rotate(-180)"/><rect width="55.11" height="6.123" x="349.283" y="475.982" fill="#535461" transform="translate(524.10316 703.84323) rotate(-180)"/><polygon fill="#fff" points="151.172 173.363 172.371 202.614 172.371 187.71 160.455 173.363 151.172 173.363" opacity=".15"/><polygon fill="#fff" points="132.962 173.363 172.371 214.769 172.371 207.464 142.961 173.363 132.962 173.363" opacity=".15"/><line x1="172.677" x2="121.242" y1="198.775" y2="198.775" fill="none" stroke="#535461" stroke-miterlimit="10" stroke-width="2"/><line x1="172.371" x2="120.935" y1="173.363" y2="173.363" fill="none" stroke="#535461" stroke-miterlimit="10" stroke-width="2"/><line x1="146.96" x2="146.96" y1="173.057" y2="224.493" fill="none" stroke="#535461" stroke-miterlimit="10" stroke-width="2"/><line x1="121.548" x2="121.548" y1="173.363" y2="224.799" fill="none" stroke="#535461" stroke-miterlimit="10" stroke-width="2"/><line x1="172.371" x2="172.371" y1="172.751" y2="224.187" fill="none" stroke="#535461" stroke-miterlimit="10" stroke-width="2"/><rect width="15.921" height="140.224" x="667.747" y="243.169" opacity=".1"/><rect width="27.555" height="53.273" x="625.803" y="119.784" fill="#e0e0e0"/><polygon fill="#eee" points="681.831 201.531 681.831 383.393 434.449 383.393 434.449 201.531 455.268 188.733 474.863 176.682 558.446 125.295 681.831 201.531"/><rect width="55.11" height="84.502" x="530.585" y="298.585" fill="#428de8"/><circle cx="577.429" cy="340.836" r="2.449" fill="#535461"/><rect width="27.555" height="3.062" x="625.803" y="120.397" opacity=".1"/><rect width="36.74" height="6.123" x="620.904" y="116.723" fill="#e0e0e0"/><rect width="247.382" height="4.899" x="434.449" y="244.394" opacity=".1"/><rect width="247.382" height="4.899" x="434.449" y="243.781" fill="#fff"/><rect width="6.736" height="56.334" x="643.866" y="116.723" opacity=".1"/><rect width="1.837" height="56.334" x="638.968" y="117.029" opacity=".1"/><polygon points="675.708 194.183 675.708 383.393 656.113 383.393 656.113 188.733 675.708 194.183" opacity=".1"/><polygon points="469.352 176.682 469.352 383.393 449.757 383.393 449.757 188.733 469.352 176.682" opacity=".1"/><polygon points="444.246 383.393 444.246 192.119 440.572 194.378 440.572 383.393 444.246 383.393" opacity=".1"/><polygon points="558.446 105.088 410.874 212.246 420.672 228.167 558.446 134.48 696.221 228.167 706.018 212.246 558.446 105.088" opacity=".1"/><polygon fill="#428de8" points="558.446 103.864 410.874 211.022 420.672 226.942 558.446 133.256 696.221 226.942 706.018 211.022 558.446 103.864"/><rect width="51.436" height="51.436" x="454.962" y="277.766" fill="#428de8" opacity=".7"/><rect width="55.11" height="6.123" x="452.819" y="327.671" opacity=".1"/><rect width="55.11" height="6.123" x="452.819" y="326.446" fill="#535461"/><polygon fill="#fff" points="476.467 278.072 455.268 307.323 455.268 292.419 467.184 278.072 476.467 278.072" opacity=".15"/><polygon fill="#fff" points="494.678 278.072 455.268 319.478 455.268 312.173 484.679 278.072 494.678 278.072" opacity=".15"/><line x1="454.962" x2="506.398" y1="303.484" y2="303.484" fill="none" stroke="#535461" stroke-miterlimit="10" stroke-width="2"/><line x1="455.268" x2="506.704" y1="278.072" y2="278.072" fill="none" stroke="#535461" stroke-miterlimit="10" stroke-width="2"/><line x1="506.092" x2="506.092" y1="278.072" y2="329.508" fill="none" stroke="#535461" stroke-miterlimit="10" stroke-width="2"/><line x1="455.268" x2="455.268" y1="277.46" y2="328.895" fill="none" stroke="#535461" stroke-miterlimit="10" stroke-width="2"/><rect width="51.436" height="51.436" x="839.454" y="532.011" fill="#428de8" opacity=".7" transform="translate(1500.77174 861.2124) rotate(-180)"/><rect width="55.11" height="6.123" x="837.923" y="581.916" opacity=".1" transform="translate(1501.38407 915.7099) rotate(-180)"/><rect width="55.11" height="6.123" x="837.923" y="580.691" fill="#535461" transform="translate(1501.38407 913.26057) rotate(-180)"/><polygon fill="#fff" points="639.813 278.072 661.012 307.323 661.012 292.419 649.096 278.072 639.813 278.072" opacity=".15"/><polygon fill="#fff" points="621.602 278.072 661.012 319.478 661.012 312.173 631.601 278.072 621.602 278.072" opacity=".15"/><line x1="661.318" x2="609.882" y1="303.484" y2="303.484" fill="none" stroke="#535461" stroke-miterlimit="10" stroke-width="2"/><line x1="661.012" x2="609.576" y1="278.072" y2="278.072" fill="none" stroke="#535461" stroke-miterlimit="10" stroke-width="2"/><line x1="610.188" x2="610.188" y1="278.072" y2="329.508" fill="none" stroke="#535461" stroke-miterlimit="10" stroke-width="2"/><line x1="661.012" x2="661.012" y1="277.46" y2="328.895" fill="none" stroke="#535461" stroke-miterlimit="10" stroke-width="2"/><rect width="51.436" height="51.436" x="761.688" y="427.302" fill="#428de8" opacity=".7" transform="translate(1345.23956 651.79507) rotate(-180)"/><rect width="55.11" height="6.123" x="760.157" y="477.207" opacity=".1" transform="translate(1345.85189 706.29256) rotate(-180)"/><rect width="55.11" height="6.123" x="760.157" y="475.982" fill="#535461" transform="translate(1345.85189 703.84323) rotate(-180)"/><polygon fill="#fff" points="562.047 173.363 583.246 202.614 583.246 187.71 571.33 173.363 562.047 173.363" opacity=".15"/><polygon fill="#fff" points="543.836 173.363 583.246 214.769 583.246 207.464 553.835 173.363 543.836 173.363" opacity=".15"/><line x1="583.552" x2="532.116" y1="198.775" y2="198.775" fill="none" stroke="#535461" stroke-miterlimit="10" stroke-width="2"/><line x1="583.246" x2="531.81" y1="173.363" y2="173.363" fill="none" stroke="#535461" stroke-miterlimit="10" stroke-width="2"/><line x1="557.834" x2="557.834" y1="173.057" y2="224.493" fill="none" stroke="#535461" stroke-miterlimit="10" stroke-width="2"/><line x1="532.422" x2="532.422" y1="173.363" y2="224.799" fill="none" stroke="#535461" stroke-miterlimit="10" stroke-width="2"/><line x1="583.246" x2="583.246" y1="172.751" y2="224.187" fill="none" stroke="#535461" stroke-miterlimit="10" stroke-width="2"/><path fill="#4db6ac" d="M519.51068,558.64721a37.29546,37.29546,0,0,0-6.95888-22.18879,20.81927,20.81927,0,1,0-37.51808,0,38.85456,38.85456,0,0,0,0,44.37758,20.81927,20.81927,0,1,0,37.51808,0A37.29555,37.29555,0,0,0,519.51068,558.64721Z" transform="translate(-229.57176 -254.24502)"/><path d="M519.51068,558.64721a37.29546,37.29546,0,0,0-6.95888-22.18879,20.81927,20.81927,0,1,0-37.51808,0,38.85456,38.85456,0,0,0,0,44.37758,20.81927,20.81927,0,1,0,37.51808,0A37.29555,37.29555,0,0,0,519.51068,558.64721Z" opacity=".1" transform="translate(-229.57176 -254.24502)"/><path fill="#4db6ac" d="M520.73534,558.64721a37.29546,37.29546,0,0,0-6.95888-22.18879,20.81927,20.81927,0,1,0-37.51808,0,38.85456,38.85456,0,0,0,0,44.37758,20.81927,20.81927,0,1,0,37.51808,0A37.29555,37.29555,0,0,0,520.73534,558.64721Z" transform="translate(-229.57176 -254.24502)"/><polygon fill="#5d291b" points="267.895 383.393 262.996 383.393 265.446 302.565 267.895 383.393"/><polygon fill="#5d291b" points="266.058 322.766 281.979 316.036 266.058 324.609 266.058 322.766"/><polygon fill="#5d291b" points="264.611 330.12 259.935 324.609 264.518 333.182 264.611 330.12"/><path fill="#4db6ac" d="M689.12647,558.64721a37.29552,37.29552,0,0,0-6.95887-22.18879,20.81927,20.81927,0,1,0-37.51808,0,38.85456,38.85456,0,0,0,0,44.37758,20.81926,20.81926,0,1,0,37.51808,0A37.29561,37.29561,0,0,0,689.12647,558.64721Z" transform="translate(-229.57176 -254.24502)"/><path d="M689.12647,558.64721a37.29552,37.29552,0,0,0-6.95887-22.18879,20.81927,20.81927,0,1,0-37.51808,0,38.85456,38.85456,0,0,0,0,44.37758,20.81926,20.81926,0,1,0,37.51808,0A37.29561,37.29561,0,0,0,689.12647,558.64721Z" opacity=".1" transform="translate(-229.57176 -254.24502)"/><path fill="#4db6ac" d="M690.35114,558.64721a37.29546,37.29546,0,0,0-6.95888-22.18879,20.81927,20.81927,0,1,0-37.51808,0,38.85456,38.85456,0,0,0,0,44.37758,20.81927,20.81927,0,1,0,37.51808,0A37.29555,37.29555,0,0,0,690.35114,558.64721Z" transform="translate(-229.57176 -254.24502)"/><polygon fill="#5d291b" points="437.511 383.393 432.612 383.393 435.061 302.565 437.511 383.393"/><polygon fill="#5d291b" points="435.674 322.766 451.594 316.036 435.674 324.609 435.674 322.766"/><polygon fill="#5d291b" points="434.226 330.12 429.55 324.609 434.134 333.182 434.226 330.12"/><g opacity=".7"><path fill="url(#fd7346e0-ec75-4521-bfef-a70f45a1cb66)" d="M567.04824,611.309l-.50473-.09421.99441-3.66659c1.56666-11.75-4.35193-12.93363-6.57119-12.97341a7.29771,7.29771,0,0,0-.77975-.2369v-1.38507a7.35714,7.35714,0,0,0,5.4946-5.941l.0186.00175c.353,0,.63921-.53659.63921-1.19852a1.66394,1.66394,0,0,0-.27815-.98869q.03778-.3795.03845-.76914a7.6461,7.6461,0,0,0-2.36373-5.53551,4.92844,4.92844,0,0,0-.5424-1.45982c-.54458-.95962-1.451-1.9604-1.0817-3.00012l-2.393.24583-.02224-1.5767c-.74688.13415-1.05974.99943-1.5026,1.61563-1.06543,1.48246-3.20412,1.68835-4.61836,2.8428-.48055.39228-1.56293,1.58667-1.35766,2.36912a7.63367,7.63367,0,0,0-1.45941,4.49877q0,.38945.03845.76914a1.66394,1.66394,0,0,0-.27815.98869c0,.66193.28618,1.19852.63921,1.19852l.01237-.00141a7.37291,7.37291,0,0,0,5.50083,5.9407v1.38507a7.29771,7.29771,0,0,0-.77975.2369c-2.21924.03978-8.13785,1.22341-6.57118,12.97341l.9944,3.66659-.23654.04416A2.727,2.727,0,0,0,547.898,614.44l3.92251,21.01366a.82565.82565,0,0,0,.96313.66012l.69167-.12911v.40876a2.295,2.295,0,0,0-1.27842,2.05664v.25968h4.63428v-.25968a2.29365,2.29365,0,0,0-1.11862-1.96914v-.91387l.63178-.11793a.82565.82565,0,0,0,.66013-.96314l-3.686-19.74668h10.2215l-3.686,19.74668a.82566.82566,0,0,0,.66013.96314l.63178.11793v.91387a2.29365,2.29365,0,0,0-1.11862,1.96914v.25968h4.63428v-.25968a2.295,2.295,0,0,0-1.27842-2.05664v-.40876l.69168.12911a.82564.82564,0,0,0,.96312-.66012l3.97257-21.28185A2.45418,2.45418,0,0,0,567.04824,611.309Z" transform="translate(-229.57176 -254.24502)"/></g><rect width="2.153" height="2.921" x="324.092" y="379.064" fill="#fdb797"/><rect width="2.153" height="2.921" x="331.472" y="379.064" fill="#fdb797"/><rect width="14.145" height="5.074" x="321.786" y="355.079" fill="#4d8af0"/><g opacity=".05"><rect width="14.145" height="5.074" x="321.786" y="355.079"/></g><path d="M551.35738,610.24652a54.0186,54.0186,0,0,0,7.07263,1.23,54.0186,54.0186,0,0,0,7.07263-1.23v-.76876H551.35738Z" opacity=".1" transform="translate(-229.57176 -254.24502)"/><path fill="#f55f44" d="M565.50264,610.09277a54.019,54.019,0,0,1-7.07263,1.23,54.019,54.019,0,0,1-7.07263-1.23v-8.45641a7.07262,7.07262,0,0,1,7.07262-7.07263h0a7.07262,7.07262,0,0,1,7.07262,7.07263Z" transform="translate(-229.57176 -254.24502)"/><path fill="#fdb797" d="M327.167,336.7824h3.38256a0,0,0,0,1,0,0v3.875a1.66007,1.66007,0,0,1-1.66007,1.66007H328.827a1.66007,1.66007,0,0,1-1.66007-1.66007v-3.875A0,0,0,0,1,327.167,336.7824Z"/><path fill="#4d8af0" d="M556.0672,634.39022l-2.71214.50626a1.15744,1.15744,0,0,1-1.35016-.92539l-3.48736-18.68253a3.8228,3.8228,0,0,1,3.05642-4.45935l.092-.01718a1.15743,1.15743,0,0,1,1.35016.9254l3.97644,21.30263A1.15742,1.15742,0,0,1,556.0672,634.39022Z" transform="translate(-229.57176 -254.24502)"/><path fill="#4d8af0" d="M560.88746,634.40788l2.52286.47093a1.2537,1.2537,0,0,0,1.46247-1.00236l3.48736-18.68253a3.72652,3.72652,0,0,0-2.97945-4.347l-.092-.01718a1.2537,1.2537,0,0,0-1.46247,1.00237l-3.94111,21.11335A1.2537,1.2537,0,0,0,560.88746,634.40788Z" transform="translate(-229.57176 -254.24502)"/><path d="M556.73873,593.58991a7.07714,7.07714,0,0,0,3.38256,0v-2.40874h-3.38256Z" opacity=".1" transform="translate(-229.57176 -254.24502)"/><circle cx="328.858" cy="330.632" r="7.38" fill="#333"/><circle cx="328.858" cy="332.324" r="7.073" fill="#fdb797"/><path fill="#333" d="M553.76029,578.26943c1.3607-1.11075,3.41842-1.30884,4.44351-2.73517.4261-.59287.7271-1.4254,1.44572-1.55447l.02139,1.517,2.30239-.23651c-.35537,1.00036.51678,1.96324,1.04074,2.88653a4.74783,4.74783,0,0,1,.61448,2.23459c-.7992.48-1.7907-.04409-2.68017-.32336a9.88045,9.88045,0,0,0-2.69067-.32518,5.59215,5.59215,0,0,0-1.38883.07626,7.009,7.009,0,0,0-1.14629.42208c-.61243.25624-2.54578,1.22421-3.11506.6003C551.96145,580.12344,553.235,578.69824,553.76029,578.26943Z" transform="translate(-229.57176 -254.24502)"/><path d="M554.14452,583.02195a3.24341,3.24341,0,0,0,1.25065.37677,11.01857,11.01857,0,0,0,5.368-.60337,2.62307,2.62307,0,0,0,1.69185,1.43026,7.767,7.767,0,0,0,2.26726.25313.83987.83987,0,0,0,.48757-.09324c.34-.22974.1757-.75572-.0225-1.115l-.98532-1.78632a5.29784,5.29784,0,0,0-1.042-1.46561,4.32521,4.32521,0,0,0-2.05615-.88273,11.59591,11.59591,0,0,0-5.278.17578C553.98466,579.8093,551.61965,581.49384,554.14452,583.02195Z" opacity=".1" transform="translate(-229.57176 -254.24502)"/><path fill="#333" d="M554.14452,582.8682a3.24322,3.24322,0,0,0,1.25065.37676,11.01845,11.01845,0,0,0,5.368-.60336,2.62307,2.62307,0,0,0,1.69185,1.43026,7.767,7.767,0,0,0,2.26726.25313.83987.83987,0,0,0,.48757-.09324c.34-.22974.1757-.75572-.0225-1.115l-.98532-1.78633a5.2978,5.2978,0,0,0-1.042-1.4656,4.32521,4.32521,0,0,0-2.05615-.88273,11.596,11.596,0,0,0-5.278.17577C553.98466,579.65555,551.61965,581.34009,554.14452,582.8682Z" transform="translate(-229.57176 -254.24502)"/><ellipse cx="335.854" cy="332.324" fill="#fdb797" rx=".615" ry="1.153"/><ellipse cx="321.862" cy="332.324" fill="#fdb797" rx=".615" ry="1.153"/><path fill="#f55f44" d="M556.76731,595.03459s-8.94625-1.39337-7.10121,12.44438l1.07572,3.96644,3.0756-.12262s-1.99878-4.61258-.76876-7.68764S556.76731,595.03459,556.76731,595.03459Z" transform="translate(-229.57176 -254.24502)"/><path fill="#f55f44" d="M560.09271,595.03459s8.94624-1.39337,7.10121,12.44438l-1.07572,3.96644-3.07561-.12262s1.99879-4.61258.76877-7.68764S560.09271,595.03459,560.09271,595.03459Z" transform="translate(-229.57176 -254.24502)"/><circle cx="322.862" cy="357.693" r="1.691" fill="#fdb797"/><circle cx="335.162" cy="357.693" r="1.691" fill="#fdb797"/><path fill="#333" d="M325.05017,380.75571h.08227a2.18828,2.18828,0,0,1,2.18828,2.18828v.27177a0,0,0,0,1,0,0h-4.45883a0,0,0,0,1,0,0V382.944A2.18828,2.18828,0,0,1,325.05017,380.75571Z"/><path fill="#333" d="M332.58406,380.75571h.08227a2.18828,2.18828,0,0,1,2.18828,2.18828v.27177a0,0,0,0,1,0,0h-4.45883a0,0,0,0,1,0,0V382.944A2.18828,2.18828,0,0,1,332.58406,380.75571Z"/><path d="M552.89491,602.40513s-.615,3.22881.46126,4.61258" opacity=".1" transform="translate(-229.57176 -254.24502)"/><path d="M563.96511,602.40513s.615,3.22881-.46126,4.61258" opacity=".1" transform="translate(-229.57176 -254.24502)"/><circle cx="447.308" cy="309.301" r="3.062" fill="#f55f44"/><path fill="#4db6ac" d="M298.41618,622.5664c.02149-.28113.04286-.56244.04286-.84906a11.00616,11.00616,0,0,0-16.61292-9.4868,11.00829,11.00829,0,0,0-18.5878-1.32187,11.01757,11.01757,0,0,0-10.59665,17.88558,11.004,11.004,0,0,0,14.87464,13.95524,10.95746,10.95746,0,0,0,11.94046-1.81139,10.93706,10.93706,0,0,0,11.022,2.18255,11.0173,11.0173,0,0,0,7.91744-20.55425Z" transform="translate(-229.57176 -254.24502)"/><path d="M298.41618,622.5664c.02149-.28113.04286-.56244.04286-.84906a11.00616,11.00616,0,0,0-16.61292-9.4868,11.00829,11.00829,0,0,0-18.5878-1.32187,11.01757,11.01757,0,0,0-10.59665,17.88558,11.004,11.004,0,0,0,14.87464,13.95524,10.95746,10.95746,0,0,0,11.94046-1.81139,10.93706,10.93706,0,0,0,11.022,2.18255,11.0173,11.0173,0,0,0,7.91744-20.55425Z" opacity=".1" transform="translate(-229.57176 -254.24502)"/><path fill="#4db6ac" d="M299.64084,622.5664c.02149-.28113.04287-.56244.04287-.84906a11.00616,11.00616,0,0,0-16.61293-9.4868,11.00828,11.00828,0,0,0-18.58779-1.32187,11.01758,11.01758,0,0,0-10.59666,17.88558A11.004,11.004,0,0,0,268.761,642.74949a10.95746,10.95746,0,0,0,11.94046-1.81139,10.93706,10.93706,0,0,0,11.022,2.18255,11.0173,11.0173,0,0,0,7.91744-20.55425Z" transform="translate(-229.57176 -254.24502)"/><rect width="688.93" height="7.049" x="9.491" y="384.461" fill="#333"/><circle cx="425.69" cy="28.241" r="28.241" fill="#ffffa5"/><g opacity=".3"><rect width="94.52" height="18.443" x="599.829" y="36.985" fill="#e0e0e0" rx="9.221"/><rect width="94.52" height="18.443" x="576.775" y="55.428" fill="#e0e0e0" rx="9.221"/><rect width="94.52" height="18.443" x="599.829" y="73.871" fill="#e0e0e0" rx="9.221"/></g><g opacity=".3"><rect width="94.52" height="18.443" x="163.849" y="27.8" fill="#e0e0e0" rx="9.221"/><rect width="94.52" height="18.443" x="140.796" y="46.243" fill="#e0e0e0" rx="9.221"/><rect width="94.52" height="18.443" x="163.849" y="64.686" fill="#e0e0e0" rx="9.221"/></g><g opacity=".3"><path fill="#030b44" d="M314.57631,348.61754h20.172S327.14726,362.06553,314.57631,348.61754Z" transform="translate(-229.57176 -254.24502)"/><path fill="#030b44" d="M315.7936,354.33973l13.224-15.23268S334.18977,353.66292,315.7936,354.33973Z" transform="translate(-229.57176 -254.24502)"/></g><g opacity=".3"><path fill="#030b44" d="M535.84021,275.7501h20.172S548.41116,289.1981,535.84021,275.7501Z" transform="translate(-229.57176 -254.24502)"/><path fill="#030b44" d="M537.0575,281.47229l13.224-15.23267S555.45368,280.79548,537.0575,281.47229Z" transform="translate(-229.57176 -254.24502)"/></g><g opacity=".3"><path fill="#030b44" d="M948.78925,341.26956h21.639S962.27441,355.69556,948.78925,341.26956Z" transform="translate(-229.57176 -254.24502)"/><path fill="#030b44" d="M950.09506,347.40789l14.18574-16.34046S969.82909,346.68187,950.09506,347.40789Z" transform="translate(-229.57176 -254.24502)"/></g><path fill="#2f2e41" d="M443.95867,616.49942l-1.47655,2.41364s-.071.61132.42066.2411a11.43653,11.43653,0,0,0,1.44662-2.52393Z" transform="translate(-229.57176 -254.24502)"/><path fill="#2f2e41" d="M456.638,593.40273l3.71636-6.199a2.995,2.995,0,0,1,2.30621-1.46673,1.75562,1.75562,0,0,1,1.94417,1.24132,4.13238,4.13238,0,0,1-.88746,4.1484s-.772.20948-.731-.51213l.88405-1.5424s.73443-2.09387-1.32011-2.2469-4.99052,6.91943-4.99052,6.91943Z" transform="translate(-229.57176 -254.24502)"/><path fill="#3f3d56" d="M458.902,594.32782l-2.39823,2.07165c-.00417.888-.78892,2.683-1.95143,4.85744q-.13263.2509-.2732.50751c-.69054,1.26492-1.49257,2.63824-2.33231,4.02534q-.13848.22939-.27914.45939c-.93958,1.53853-1.91594,3.08111-2.82809,4.49378-.0949.14771-.18931.29292-.28231.43894-1.05215,1.62116-2.00089,3.04731-2.68609,4.06566-.10123.15061-.19685.29142-.28512.42431-.51105.75677-.816,1.1995-.816,1.1995a1.07077,1.07077,0,0,1-.60691.16348.482.482,0,0,1-.37684-.25418,1.99269,1.99269,0,0,1-.14741-1.02334,15.6957,15.6957,0,0,1,1.38534-4.02417c.085-.18412.17419-.37053.26524-.55864.72843-1.49189,1.63231-3.09651,2.5966-4.68792l.28025-.45969c.937-1.526,1.91836-3.02848,2.84167-4.39563.09671-.14109.19151-.28049.28521-.41959.90792-1.33219,1.74641-2.51883,2.41566-3.4476.10061-.13979.19611-.27227.28839-.39914.76514-1.05543,1.24457-1.68877,1.24457-1.68877l.54546-3.22672,1.04469.62951.80423.48516Z" transform="translate(-229.57176 -254.24502)"/><path fill="#428de8" d="M445.28948,611.17449l.58174,4.073c-.10123.15061-.19685.29142-.28512.42431l-.56186-3.93871C445.10929,611.549,445.19843,611.3626,445.28948,611.17449Z" transform="translate(-229.57176 -254.24502)"/><path fill="#428de8" d="M448.16633,606.02688l.67329,4.716c-.0949.14771-.18931.29292-.28231.43894l-.67123-4.6953Z" transform="translate(-229.57176 -254.24502)"/><path fill="#428de8" d="M451.29321,601.21166l.65364,4.5781q-.13848.22939-.27914.45939l-.65971-4.6179C451.10471,601.49016,451.19951,601.35076,451.29321,601.21166Z" transform="translate(-229.57176 -254.24502)"/><path fill="#428de8" d="M453.99726,597.36492l.5551,3.892q-.13263.2509-.2732.50751l-.57029-4.00036C453.80948,597.62427,453.905,597.49179,453.99726,597.36492Z" transform="translate(-229.57176 -254.24502)"/><circle cx="244.162" cy="307.296" r="4.409" fill="#2f2e41"/><path fill="#ffb8b8" d="M470.97017,564.51169s.37945,4.36362,0,5.502,4.9328-.56917,4.9328-.56917-2.087-4.93279-1.70751-5.4071S470.97017,564.51169,470.97017,564.51169Z" transform="translate(-229.57176 -254.24502)"/><path fill="#ffb8b8" d="M470.82788,596.43256l-.28459,13.94463a4.32529,4.32529,0,0,0,.664,2.65612c.85376,1.42293,4.64822,12.14227,4.64822,12.14227l3.13042-1.70751-.28458-4.26876s-.56917-5.88141-2.4664-8.06323l2.751-13.37546Z" transform="translate(-229.57176 -254.24502)"/><path d="M470.82788,596.43256l-.28459,13.94463a4.32529,4.32529,0,0,0,.664,2.65612c.85376,1.42293,4.64822,12.14227,4.64822,12.14227l3.13042-1.70751-.28458-4.26876s-.56917-5.88141-2.4664-8.06323l2.751-13.37546Z" opacity=".1" transform="translate(-229.57176 -254.24502)"/><path fill="#2f2e41" d="M479.36541,621.476s-7.8735,1.61265-6.54544,4.17391,3.79446,7.8735,3.79446,7.8735.664,3.32015-.56917,3.98418-3.79446,4.64821-1.32806,4.45848,4.83793-2.9407,4.83793-2.9407l2.087-2.65612.37945.664,3.79446-3.13043s1.42292-3.03557-3.79446-4.55335Z" transform="translate(-229.57176 -254.24502)"/><path d="M479.36541,621.476s-7.8735,1.61265-6.54544,4.17391,3.79446,7.8735,3.79446,7.8735.664,3.32015-.56917,3.98418-3.79446,4.64821-1.32806,4.45848,4.83793-2.9407,4.83793-2.9407l2.087-2.65612.37945.664,3.79446-3.13043s1.42292-3.03557-3.79446-4.55335Z" opacity=".1" transform="translate(-229.57176 -254.24502)"/><path fill="#ffb8b8" d="M469.21523,596.812l-.28458,13.94463a4.32529,4.32529,0,0,0,.664,2.65612c.85375,1.42292,4.64821,12.14226,4.64821,12.14226l3.13043-1.7075-.28459-4.26877s-.56916-5.88141-2.46639-8.06322l2.751-13.37546Z" transform="translate(-229.57176 -254.24502)"/><path fill="#2f2e41" d="M477.75276,621.85543s-7.8735,1.61264-6.54544,4.1739,3.79446,7.8735,3.79446,7.8735.664,3.32015-.56917,3.98418-3.79445,4.64821-1.32806,4.45849,4.83794-2.94071,4.83794-2.94071l2.087-2.65612.37944.664,3.79446-3.13042s1.42292-3.03557-3.79446-4.55335Z" transform="translate(-229.57176 -254.24502)"/><circle cx="242.726" cy="309.033" r="3.605" fill="#ffb8b8"/><path fill="#575a89" d="M471.87136,568.733s3.98418-2.18181,5.78654-2.18181,3.79446-.85376,3.98418.18972,2.087,3.79446.18973,3.60473-3.415.09487-4.36363,0S471.87136,568.733,471.87136,568.733Z" transform="translate(-229.57176 -254.24502)"/><path fill="#428de8" d="M469.59468,593.58672s-1.70751,4.26876-.56917,4.45849a62.96326,62.96326,0,0,0,7.8735.4743C477.1836,598.32979,478.13221,593.397,469.59468,593.58672Z" transform="translate(-229.57176 -254.24502)"/><path fill="#575a89" d="M481.26264,595.484c-1.99209,1.89723-.85376,2.751-1.61265,4.1739s-6.35571.28458-8.63239-2.751-2.84584-1.89723-5.31224-2.27668-4.64821-2.18181-2.56126-3.22529a6.04207,6.04207,0,0,0,2.475-2.713,8.38063,8.38063,0,0,0,.85469-2.93406,7.16365,7.16365,0,0,0-.10435-2.13153c-.37944-1.84316.26372-5.483,1.30909-8.72441a18.3289,18.3289,0,0,1,2.603-5.502c.055-.0683.111-.13185.16695-.19256,2.27668-2.4664,7.3992-.664,7.3992-.664s3.79445,3.13042,2.46639,7.1146a13.65083,13.65083,0,0,0,.37945,9.86559C481.737,587.895,483.25473,593.58672,481.26264,595.484Z" transform="translate(-229.57176 -254.24502)"/><path fill="#ffb8b8" d="M466.46425,587.70531l-1.04347.664s-4.26877-1.2332-4.17391,0,4.45849,1.61264,4.45849,1.61264l1.51778-1.13833Z" transform="translate(-229.57176 -254.24502)"/><path d="M471.58677,569.87136s-2.749-1.10869-2.70256,3.24011a48.42653,48.42653,0,0,0,1.3745,9.56618l-3.88146,5.61461,1.22534,1.87945,7.8735-6.45058v-8.917S475.09664,570.2508,471.58677,569.87136Z" opacity=".1" transform="translate(-229.57176 -254.24502)"/><path d="M474.148,574.32984v8.917l-7.2569,5.92884-.47431-1.04348c.444-.88221-.04363-1.33185.05692-2.37438l2.45691-3.55446a53.51964,53.51964,0,0,1-1.25217-7.30148,18.3289,18.3289,0,0,1,2.603-5.502C473.77048,569.79641,474.148,574.32984,474.148,574.32984Z" opacity=".1" transform="translate(-229.57176 -254.24502)"/><path fill="#575a89" d="M471.20732,569.39705s-2.749-1.10869-2.70256,3.24011a48.42653,48.42653,0,0,0,1.3745,9.56618L465.9978,587.818l1.22534,1.87944,7.8735-6.45058v-8.917S474.7172,569.7765,471.20732,569.39705Z" transform="translate(-229.57176 -254.24502)"/><circle cx="248.938" cy="301.49" r="4.409" fill="#2f2e41"/><path fill="#2f2e41" d="M482.31349,559.38648a4.40955,4.40955,0,0,1-6.80917-2.31526,4.40957,4.40957,0,1,0,8.60141-1.80824A4.40793,4.40793,0,0,1,482.31349,559.38648Z" transform="translate(-229.57176 -254.24502)"/><circle cx="245.337" cy="308.031" r="3.234" fill="#2f2e41"/><ellipse cx="242.618" cy="306.818" fill="#2f2e41" rx="2.866" ry="2.241"/><ellipse cx="241.854" cy="309.115" fill="#ffb8b8" rx=".544" ry=".962"/></svg>